<?xml version="1.0" encoding="utf-8"?>
<!-- Generator: Adobe Illustrator 26.0.3, SVG Export Plug-In . SVG Version: 6.00 Build 0)  -->
<svg version="1.1"
	 id="SVGRoot" inkscape:version="0.92.2 (5c3e80d, 2017-08-06)" sodipodi:docname="j-mug.svg" xmlns:cc="http://creativecommons.org/ns#" xmlns:dc="http://purl.org/dc/elements/1.1/" xmlns:inkscape="http://www.inkscape.org/namespaces/inkscape" xmlns:rdf="http://www.w3.org/1999/02/22-rdf-syntax-ns#" xmlns:sodipodi="http://sodipodi.sourceforge.net/DTD/sodipodi-0.dtd" xmlns:svg="http://www.w3.org/2000/svg"
	 xmlns="http://www.w3.org/2000/svg" xmlns:xlink="http://www.w3.org/1999/xlink" x="0px" y="0px" viewBox="0 0 209.8 147.4"
	 style="enable-background:new 0 0 209.8 147.4;" xml:space="preserve">
<sodipodi:namedview  bordercolor="#666666" borderopacity="1.0" id="base" inkscape:current-layer="layer1" inkscape:cx="139.5" inkscape:cy="98" inkscape:document-units="mm" inkscape:pageopacity="0.0" inkscape:pageshadow="2" inkscape:window-height="1017" inkscape:window-maximized="1" inkscape:window-width="1920" inkscape:window-x="-8" inkscape:window-y="588" inkscape:zoom="2" pagecolor="#ffffff" showgrid="false">
	</sodipodi:namedview>
<g id="g35" transform="translate(-0.31734533,1.1882941)">
	<g>
		<path d="M83.9,66c0,0.2-0.1,0.5-0.1,0.7c-0.3,1.1-1,2-1.9,2.6c-1.1,0.8-2.3,1.1-3.7,1c-0.2,0-0.4,0-0.6-0.1c-0.1,0-0.2,0-0.2,0.1
			c-0.5,0.8-1.1,1.5-1.6,2.3c-0.4,0.5-0.9,1-1.3,1.4c0,0-0.1,0.1-0.2,0.1c-2.8,0-5.7,0-8.5,0c-0.1,0-0.2,0-0.2-0.1
			c-1.3-0.7-2.3-1.8-3.1-3.1c-0.8-1.4-1.4-2.8-1.8-4.4c-0.3-1.3-0.5-2.7-0.6-4.1c0-0.6,0.2-1.1,0.7-1.5c0.3-0.2,0.6-0.3,0.9-0.3
			c4.1,0,8.3,0,12.4,0c1.3,0,2.6,0,4,0c0.8,0,1.3,0.4,1.6,1.1c0,0,0,0,0,0.1c0,0.3,0.2,0.4,0.5,0.4c1,0.1,1.9,0.5,2.6,1.2
			c0.6,0.6,1,1.3,1,2.2c0,0,0,0.1,0,0.1C83.9,65.8,83.9,65.9,83.9,66z M62.4,62.5c0,0.1,0,0.1,0,0.2c0,0.9,0.1,1.7,0.2,2.6
			c0.2,1.3,0.5,2.6,1,3.8c0.5,1.2,1.2,2.2,2.2,3.1c0.3,0.3,0.6,0.5,1,0.7c0,0,0,0,0,0c0,0,0-0.1-0.1-0.1c-0.7-1.3-1.2-2.7-1.6-4.1
			c-0.4-1.2-0.6-2.5-0.6-3.8c0-0.7,0.1-1.5,0.4-2.1c0,0,0,0,0,0C64,62.5,63.2,62.5,62.4,62.5z M78.4,68.8
			C78.4,68.8,78.4,68.8,78.4,68.8c1.3,0.1,2.3-0.2,3-1.1c0.5-0.6,0.8-1.3,0.6-2.1c-0.2-0.9-0.7-1.4-1.5-1.7
			c-0.2-0.1-0.5-0.1-0.7-0.2C79.7,65.6,79.2,67.2,78.4,68.8z"/>
		<path d="M72.9,48.3c-0.2,0.3-0.4,0.5-0.6,0.8c-0.5,0.7-0.5,1.5-0.2,2.3c0.2,0.5,0.5,1,0.8,1.4c0.4,0.5,0.7,1.1,1,1.6
			c0.7,1.2,0.5,2.3-0.3,3.4c-0.6,0.8-1.4,1.4-2.2,2c0,0,0.1-0.1,0.1-0.1c0.5-0.7,0.9-1.3,1.1-2.1c0.2-0.8,0.2-1.5-0.2-2.2
			c-0.2-0.4-0.5-0.6-0.8-0.9c-0.2-0.1-0.3-0.3-0.5-0.4c-0.4-0.3-0.7-0.7-0.8-1.2c-0.2-0.8-0.2-1.6,0-2.3c0.3-1.2,1.1-1.9,2.3-2.2
			C72.7,48.4,72.7,48.4,72.9,48.3C72.8,48.3,72.9,48.3,72.9,48.3z"/>
		<path d="M57.8,74.8c7.9,0,15.8,0,23.8,0c0,0.5,0,0.9-0.2,1.3c-0.2,0.8-0.7,1.1-1.2,1.2c-0.1,0-0.2,0-0.3,0c-6.8,0-13.5,0-20.3,0
			c-0.3,0-0.7,0-1-0.2C57.9,76.7,57.7,75.6,57.8,74.8z"/>
		<path d="M68.8,50.5c-0.1,0.2-0.3,0.4-0.4,0.6c-0.4,0.6-0.5,1.2-0.2,1.8c0.2,0.4,0.4,0.8,0.7,1.2c0.3,0.4,0.5,0.8,0.8,1.2
			c0.3,0.5,0.5,1.1,0.4,1.7c-0.1,0.5-0.3,1-0.7,1.4c-0.5,0.6-1,1-1.6,1.4c0,0,0,0-0.1,0c0.1-0.1,0.1-0.1,0.1-0.2
			c0.4-0.6,0.7-1.1,0.9-1.8c0.2-0.8,0-1.5-0.6-2.1c-0.2-0.2-0.4-0.3-0.6-0.5c-0.5-0.3-0.7-0.7-0.8-1.2c-0.2-0.7-0.1-1.4,0.2-2.1
			c0.3-0.8,1-1.2,1.8-1.4C68.7,50.5,68.8,50.5,68.8,50.5C68.8,50.5,68.8,50.5,68.8,50.5z"/>
	</g>
	<g id="flowRoot45" transform="matrix(0.26458333,0,0,0.26458333,-0.2645833,-0.264583)">
		<path id="path89" d="M154.3,336.8c-2.9,0-5.7-0.2-8.3-0.5c0,0-0.1,0-0.1,0c-4.3-0.5-8.4-1.8-12.3-3.5c-3-1-8.6-3.8-14.2-6.6
			l9.1-23c0,0,22.4,11.3,34.3,8.9c3.1-0.6,5.5-2.5,7.2-4.8c2.7-3.8,4.1-9.6,4.1-17.2v-37.6l-3.3-15.1l1.7-9.1h28.6l0.2,66.7
			c0,13.5-4,23.9-12.1,31.1C180.8,333.2,169.3,336.8,154.3,336.8z"/>
		<path id="path91" d="M332.5,335.3v-82.7l-3-15.1l3.2-9.1h28.9l29.6,57.4h3l24.5-57.4h30.1l1.5,9.1l-1.5,14.5v83.3h-27.4l0.5-12.9
			v-42.2h-1.7l-6,14.5l-13.6,25.4h-18.1l-20.9-39.9H360v12.2l1.5,42.8H332.5z"/>
		<path id="path93" d="M515.3,336.8c-15.5,0-27.2-3.5-35.1-10.6c-7.8-7.2-11.6-18.6-11.6-34.3v-39.3l0.2-15.3l-0.2-9.1h27.5v60.6
			c0,7.1,1.4,12.8,4.2,17.2c2.8,4.3,7.8,6.5,15,6.5c7.2,0,12.2-2,15.1-6c3-4.1,4.5-10,4.5-17.7v-60.6H562v63.6
			c0,15.4-3.8,26.8-11.5,34C542.9,333.1,531.2,336.8,515.3,336.8L515.3,336.8z"/>
		<path id="path95" d="M634.4,336.8c-7.8,0-15.1-0.8-22.1-2.3c-6.9-1.6-13-4.4-18.3-8.5c-5.2-4-9.4-9.6-12.4-16.8
			c-3-7.2-4.5-16.3-4.5-27.5c0-10.8,1.6-19.7,4.8-26.8c3.2-7.2,7.5-12.8,12.9-16.9c5.4-4.1,11.4-7.1,18-8.8
			c6.7-1.7,13.4-2.6,20.1-2.6c4.9,0,9.2,0.3,12.9,0.8c0,0,0.1,0,0.1,0c6.3,0.9,12.3,3.1,17.8,6.3l13.1,7.6l-10.6,23.4l-26.8-9.5
			c-6.5-2.3-13.7-2.4-19.9,0.5c0,0-0.1,0-0.1,0.1c-4,1.9-7.3,5-9.8,9.2c-2.4,4.1-3.6,9.7-3.6,16.8c0,11.4,2.5,19.4,7.6,24
			c5.1,4.5,12.1,6.8,21,6.8c4.5,0,8.1-0.2,10.6-0.6c2.6-0.5,4.6-0.9,6-1.2v-11.5h-19.2v-22.4h48.1l1.7,9.1l-3.3,12.5v31.7
			c-1.1,0.4-3.6,1.1-7.6,2.1c-3.8,1-8.9,2-15.1,2.9C649.4,336.3,642.4,336.8,634.4,336.8L634.4,336.8z"/>
	</g>
</g>
</svg>
